<?xml version="1.0" encoding="UTF-8" standalone="no"?>
<!DOCTYPE svg PUBLIC "-//W3C//DTD SVG 1.1//EN" "http://www.w3.org/Graphics/SVG/1.1/DTD/svg11.dtd">
<svg width="100%" height="100%" viewBox="0 0 354 98" version="1.1" xmlns="http://www.w3.org/2000/svg" xmlns:xlink="http://www.w3.org/1999/xlink" xml:space="preserve" xmlns:serif="http://www.serif.com/" style="fill-rule:evenodd;clip-rule:evenodd;stroke-linejoin:round;stroke-miterlimit:2;">
    <g transform="matrix(1,0,0,1,-1439,-158)">
        <g transform="matrix(0.268182,0,0,0.268182,1359.89,58.9636)">
            <g id="Background" transform="matrix(1.03125,0,0,1.13869,-35,-76.6445)">
                <rect x="320" y="394" width="1280" height="316.152" style="fill:none;"/>
            </g>
            <g id="Logo">
                <g transform="matrix(1,0,0,1,-2,-1)">
                    <circle cx="687" cy="523" r="25" style="fill:rgb(233,238,254);"/>
                </g>
                <g transform="matrix(1,0,0,1,437.306,-58.5352)">
                    <circle cx="687" cy="523" r="25" style="fill:rgb(233,238,254);"/>
                </g>
                <path d="M685,440L574,440C554.937,440 542,453 542,453L432,552L366,495L366,710L320,710L320,394L432,492L522,412C542.17,393.91 565,394 565,394L685,394C755.645,394 813,451.355 813,522C813,592.645 755.645,650 685,650L585,650L585,604L685,604C730.257,604 767,567.257 767,522C767,476.743 730.257,440 685,440Z" style="fill:rgb(233,238,254);"/>
                <path d="M498,650L544,650L544,545L637,545L637,499L537,499L498,534L498,650Z" style="fill:rgb(233,238,254);"/>
                <g transform="matrix(1,0,0,1,12.8991,465.194)">
                    <path d="M875.152,188.103C860.083,188.103 847.001,184.821 835.908,178.258C824.814,171.694 816.239,162.611 810.184,151.009C804.129,139.406 801.101,126.025 801.101,110.863C801.101,95.702 804.175,82.297 810.323,70.648C816.47,59 824.976,49.871 835.838,43.261C846.701,36.651 859.297,33.346 873.626,33.346C884.258,33.346 893.965,35.148 902.747,38.754C911.53,42.359 919.134,47.513 925.559,54.216C931.984,60.918 936.953,68.961 940.466,78.345C943.979,87.728 945.736,98.244 945.736,109.892L945.736,120.986L816.216,120.986L816.216,94.916L925.906,94.916L907.324,101.295C907.324,93.714 906.006,87.196 903.371,81.742C900.737,76.288 896.969,72.058 892.07,69.054C887.17,66.049 881.253,64.547 874.32,64.547C867.479,64.547 861.585,66.049 856.639,69.054C851.693,72.058 847.88,76.264 845.199,81.673C842.518,87.081 841.177,93.483 841.177,100.879L841.177,118.906C841.177,126.764 842.564,133.559 845.337,139.291C848.111,145.023 852.132,149.437 857.402,152.534C862.671,155.631 868.958,157.18 876.261,157.18C881.438,157.18 886.084,156.44 890.198,154.961C894.312,153.482 897.778,151.332 900.598,148.513C903.418,145.693 905.475,142.388 906.769,138.597L944.072,140.262C942.13,149.691 937.97,157.988 931.591,165.153C925.212,172.318 917.169,177.934 907.462,182.002C897.755,186.069 886.985,188.103 875.152,188.103Z" style="fill:rgb(233,238,254);fill-rule:nonzero;"/>
                </g>
                <g transform="matrix(1,0,0,1,12.8991,465.194)">
                    <path d="M1015.85,188.242C1003.27,188.242 992.066,186.324 982.22,182.487C972.375,178.651 964.47,173.104 958.507,165.847C952.544,158.589 949.055,149.83 948.038,139.568L987.836,138.043C988.853,144.607 991.719,149.691 996.434,153.297C1001.15,156.902 1007.53,158.705 1015.57,158.705C1023.24,158.705 1029.28,157.249 1033.67,154.337C1038.06,151.425 1040.25,147.704 1040.25,143.174C1040.25,139.291 1038.61,136.125 1035.33,133.675C1032.05,131.225 1027.31,129.399 1021.12,128.197L995.186,123.066C980.857,120.2 969.994,115.162 962.598,107.951C955.202,100.74 951.504,91.495 951.504,80.217C951.504,70.787 954.07,62.582 959.201,55.602C964.332,48.623 971.589,43.214 980.972,39.378C990.356,35.541 1001.43,33.623 1014.18,33.623C1026.76,33.623 1037.71,35.564 1047.05,39.447C1056.39,43.33 1063.74,48.831 1069.1,55.949C1074.46,63.068 1077.46,71.527 1078.11,81.326L1040.53,82.713C1040.07,76.981 1037.57,72.243 1033.04,68.499C1028.51,64.755 1022.6,62.883 1015.29,62.883C1008.27,62.883 1002.67,64.339 998.514,67.251C994.354,70.163 992.274,73.838 992.274,78.275C992.274,82.158 993.846,85.324 996.989,87.774C1000.13,90.224 1004.66,92.096 1010.58,93.39L1038.45,98.799C1053.24,101.757 1064.17,106.541 1071.25,113.151C1078.32,119.761 1081.86,128.474 1081.86,139.291C1081.86,149.183 1079.06,157.78 1073.47,165.084C1067.87,172.387 1060.11,178.073 1050.17,182.14C1040.23,186.208 1028.79,188.242 1015.85,188.242Z" style="fill:rgb(233,238,254);fill-rule:nonzero;"/>
                </g>
                <g transform="matrix(1,0,0,1,12.8991,465.194)">
                    <rect x="1090.95" y="36.396" width="40.908" height="148.379" style="fill:rgb(233,238,254);fill-rule:nonzero;"/>
                </g>
                <g transform="matrix(1,0,0,1,12.8991,465.194)">
                    <path d="M1217.09,244.959C1203.5,244.959 1191.87,243.064 1182.21,239.273C1172.55,235.483 1164.92,230.19 1159.33,223.395C1153.74,216.6 1150.16,208.719 1148.59,199.752L1187.14,197.533C1188.15,200.954 1190,203.981 1192.68,206.616C1195.36,209.251 1198.76,211.285 1202.88,212.718C1206.99,214.151 1211.73,214.867 1217.09,214.867C1227.26,214.867 1235.12,212.209 1240.66,206.893C1246.21,201.578 1248.98,193.65 1248.98,183.111L1248.98,159.398L1248.15,159.398C1245.56,164.76 1242.19,169.313 1238.03,173.057C1233.87,176.802 1229.04,179.621 1223.54,181.516C1218.04,183.412 1211.87,184.359 1205.02,184.359C1192.54,184.359 1181.54,181.285 1172.02,175.138C1162.5,168.99 1155.06,160.323 1149.69,149.137C1144.33,137.95 1141.65,124.823 1141.65,109.754C1141.65,94.407 1144.36,81.026 1149.76,69.608C1155.17,58.191 1162.64,49.339 1172.16,43.053C1181.68,36.766 1192.54,33.623 1204.75,33.623C1211.68,33.623 1217.9,34.64 1223.4,36.674C1228.9,38.708 1233.78,41.597 1238.03,45.341C1242.28,49.085 1245.79,53.545 1248.57,58.722L1249.12,58.722L1249.12,36.396L1289.61,36.396L1289.61,180.06C1289.61,195.222 1286.54,207.564 1280.39,217.086C1274.25,226.608 1265.74,233.634 1254.88,238.164C1244.01,242.694 1231.42,244.959 1217.09,244.959ZM1216.12,151.91C1223.05,151.91 1229.08,150.177 1234.21,146.71C1239.35,143.243 1243.3,138.297 1246.07,131.872C1248.85,125.447 1250.23,117.889 1250.23,109.199C1250.23,100.509 1248.85,92.951 1246.07,86.526C1243.3,80.101 1239.35,75.109 1234.21,71.55C1229.08,67.99 1223.05,66.211 1216.12,66.211C1209.37,66.211 1203.52,67.921 1198.58,71.342C1193.63,74.762 1189.84,79.685 1187.2,86.11C1184.57,92.535 1183.25,100.232 1183.25,109.199C1183.25,118.166 1184.57,125.84 1187.2,132.219C1189.84,138.597 1193.63,143.474 1198.58,146.848C1203.52,150.223 1209.37,151.91 1216.12,151.91Z" style="fill:rgb(233,238,254);fill-rule:nonzero;"/>
                </g>
                <g transform="matrix(1,0,0,1,12.8991,465.194)">
                    <path d="M1346.69,101.572L1346.69,184.775L1305.78,184.775L1305.78,36.396L1345.72,36.396L1345.86,74.67L1339.9,74.67C1344.43,61.727 1350.94,51.65 1359.45,44.439C1367.95,37.228 1378.82,33.623 1392.04,33.623C1402.58,33.623 1411.73,35.888 1419.49,40.418C1427.26,44.948 1433.27,51.535 1437.52,60.179C1441.77,68.822 1443.9,79.292 1443.9,91.588L1443.9,184.775L1402.99,184.775L1402.99,98.937C1402.99,89.23 1400.61,81.765 1395.85,76.542C1391.09,71.319 1384.41,68.707 1375.81,68.707C1370.08,68.707 1365.04,69.909 1360.7,72.312C1356.35,74.716 1352.93,78.321 1350.44,83.129C1347.94,87.936 1346.69,94.084 1346.69,101.572Z" style="fill:rgb(233,238,254);fill-rule:nonzero;"/>
                </g>
                <g transform="matrix(1,0,0,1,12.8991,465.194)">
                    <path d="M1521.09,188.242C1508.51,188.242 1497.3,186.324 1487.46,182.487C1477.61,178.651 1469.71,173.104 1463.74,165.847C1457.78,158.589 1454.29,149.83 1453.28,139.568L1493.07,138.043C1494.09,144.607 1496.96,149.691 1501.67,153.297C1506.39,156.902 1512.77,158.705 1520.81,158.705C1528.48,158.705 1534.51,157.249 1538.9,154.337C1543.3,151.425 1545.49,147.704 1545.49,143.174C1545.49,139.291 1543.85,136.125 1540.57,133.675C1537.29,131.225 1532.55,129.399 1526.36,128.197L1500.42,123.066C1486.09,120.2 1475.23,115.162 1467.84,107.951C1460.44,100.74 1456.74,91.495 1456.74,80.217C1456.74,70.787 1459.31,62.582 1464.44,55.602C1469.57,48.623 1476.83,43.214 1486.21,39.378C1495.59,35.541 1506.66,33.623 1519.42,33.623C1531.99,33.623 1542.95,35.564 1552.29,39.447C1561.62,43.33 1568.97,48.831 1574.34,55.949C1579.7,63.068 1582.7,71.527 1583.35,81.326L1545.77,82.713C1545.31,76.981 1542.81,72.243 1538.28,68.499C1533.75,64.755 1527.83,62.883 1520.53,62.883C1513.51,62.883 1507.91,64.339 1503.75,67.251C1499.59,70.163 1497.51,73.838 1497.51,78.275C1497.51,82.158 1499.08,85.324 1502.23,87.774C1505.37,90.224 1509.9,92.096 1515.82,93.39L1543.69,98.799C1558.48,101.757 1569.41,106.541 1576.49,113.151C1583.56,119.761 1587.09,128.474 1587.09,139.291C1587.09,149.183 1584.3,157.78 1578.7,165.084C1573.11,172.387 1565.35,178.073 1555.41,182.14C1545.47,186.208 1534.03,188.242 1521.09,188.242Z" style="fill:rgb(233,238,254);fill-rule:nonzero;"/>
                </g>
            </g>
        </g>
    </g>
</svg>
